<svg width="42" height="42" viewBox="0 0 42 42" fill="none" xmlns="http://www.w3.org/2000/svg">
<path d="M20.788 38.368C29.3987 38.368 36.3791 31.3876 36.3791 22.7769C36.3791 14.1662 29.3987 7.18585 20.788 7.18585C12.1773 7.18585 5.1969 14.1662 5.1969 22.7769C5.1969 31.3876 12.1773 38.368 20.788 38.368Z" stroke="#20FB56" stroke-width="4.04213"/>
<path d="M17.3237 3.72113H24.2531" stroke="#20FB56" stroke-width="4.04213" stroke-linecap="round"/>
<path d="M24.0589 19.1993C25.9212 20.7186 26.8514 21.4773 26.8514 22.7766C26.8514 24.0758 25.9212 24.8346 24.0589 26.3539C23.5444 26.7731 23.0351 27.1681 22.5656 27.4972C22.1551 27.7865 21.6891 28.0845 21.2075 28.3773C19.3487 29.5067 18.4201 30.0715 17.5869 29.4461C16.7554 28.8225 16.6791 27.5128 16.5267 24.8935C16.4851 24.1538 16.4574 23.428 16.4574 22.7766C16.4574 22.1252 16.4851 21.3994 16.5267 20.6597C16.6791 18.0404 16.7554 16.7324 17.5869 16.1071C18.4201 15.4817 19.3504 16.0464 21.2075 17.1759C21.6891 17.4687 22.1551 17.7667 22.5656 18.056C23.0334 18.3851 23.5444 18.7801 24.0589 19.1993Z" stroke="#20FB56" stroke-width="4.04213"/>
</svg>
